<svg preserveAspectRatio="none" width="100%" height="100%" overflow="visible" style="display: block;" viewBox="0 0 121.855 135.001" fill="none" xmlns="http://www.w3.org/2000/svg">
<g id="Layer 1">
<path id="Vector" d="M91.5637 39.7524C91.5637 39.7524 99.2263 34.3197 106.811 35.8324C112.067 36.8814 115.682 42.546 114.596 48.3652C113.764 52.8482 110.781 58.5238 102.52 64.0007C98.195 66.8606 95.6888 72.1939 96.1546 77.7591L99.6476 119.167C100.368 127.658 94.3581 135.001 86.6734 135.001H11.3786C5.75646 135.001 1.1434 130.076 0.921621 123.826C0.10103 100.439 -0.309266 46.6095 11.8554 23.8739C12.8313 22.0409 5.01349 25.6848 1.68677 23.4764C-1.15204 21.5882 -0.154019 16.1445 2.79567 14.6428C4.86933 13.5938 6.54378 12.9423 11.6669 13.5386C12.3766 13.6159 7.12041 13.5606 4.81389 10.1928C3.92676 8.90091 3.91567 7.21147 4.65864 5.83122C6.21111 2.92716 10.924 -1.39028 24.9738 2.49652C26.7148 2.98237 79.3103 -15.1707 91.5748 39.7524H91.5637Z" fill="url(#paint0_linear_0_81)"/>
<g id="Group" opacity="0.12">
<path id="Vector_2" d="M37.1054 93.3726C28.9661 93.3726 23.9316 86.6811 20.0283 79.7798C19.873 79.5148 19.9728 79.1836 20.2389 79.029C20.5051 78.8744 20.8378 78.9738 20.993 79.2388C27.4247 90.601 33.5347 94.1455 42.1177 91.4402C45.7438 90.3029 47.1854 86.0517 46.7418 82.441C45.5775 73.0111 38.0702 67.998 37.9926 67.9538C37.7375 67.7882 37.671 67.4459 37.8373 67.1919C38.0036 66.938 38.3474 66.8717 38.6025 67.0263C38.924 67.2361 46.6088 72.3486 47.8397 82.2974C48.3387 86.3609 46.6531 91.1642 42.4504 92.4892C40.532 93.0965 38.7577 93.3726 37.1054 93.3726Z" fill="var(--fill-0, black)"/>
</g>
<path id="Vector_3" d="M108.061 71.562C107.81 71.517 107.612 71.3021 107.602 71.0423L106.807 52.458C106.794 52.1528 107.032 51.8926 107.339 51.8801C107.643 51.8786 107.907 52.1053 107.92 52.4104L108.715 70.9947C108.728 71.2999 108.49 71.5602 108.183 71.5726C108.14 71.5648 108.105 71.5698 108.061 71.562Z" fill="url(#paint1_linear_0_81)"/>
<g id="Vector_4" filter="url(#filter0_n_0_81)">
<path d="M107.046 92.3909C113.075 93.4704 118.833 89.4793 119.908 83.4764C120.983 77.4736 116.968 71.7322 110.939 70.6526C104.911 69.5731 99.1523 73.5642 98.0774 79.567C97.0024 85.5699 101.018 91.3113 107.046 92.3909Z" fill="url(#paint2_linear_0_81)"/>
<path d="M107.046 92.3909C113.075 93.4704 118.833 89.4793 119.908 83.4764C120.983 77.4736 116.968 71.7322 110.939 70.6526C104.911 69.5731 99.1523 73.5642 98.0774 79.567C97.0024 85.5699 101.018 91.3113 107.046 92.3909Z" fill="url(#paint3_radial_0_81)"/>
</g>
<path id="Vector_5" opacity="0.5" d="M106.549 89.7554C106.266 89.7046 106.066 89.4334 106.095 89.1469C106.128 88.8386 106.413 88.6316 106.711 88.6627C110.272 89.0984 112.975 88.1578 114.771 85.8657C116.262 83.9565 116.684 81.3509 115.886 78.886C114.119 73.3421 108.327 73.9764 108.087 74.0006C105.23 74.3528 103.677 75.7909 102.863 76.9353C101.82 78.42 101.582 80.0038 101.69 80.9094C102.066 83.9046 102.965 84.3572 105.376 85.5518C108.561 87.1429 111.258 84.9113 111.367 84.8074C113.726 82.3918 112.816 79.7384 112.009 78.8312C110.664 77.3452 108.397 76.984 106.621 77.9673C105.383 78.6542 105.045 79.6594 105.595 81.059C105.864 81.7578 106.323 82.2103 106.856 82.317C107.391 82.4127 107.871 82.1847 108.322 81.682C108.477 81.5079 108.548 81.3635 108.548 81.3635C108.686 81.0966 109.021 80.9882 109.291 81.1152C109.559 81.2529 109.681 81.5777 109.543 81.8446C109.537 81.8772 109.401 82.1333 109.136 82.4223C108.432 83.2049 107.524 83.5583 106.662 83.4039L106.651 83.4019C105.734 83.2377 104.971 82.529 104.555 81.4561C103.816 79.5402 104.357 77.9657 106.084 77.0072C108.311 75.7683 111.146 76.2311 112.84 78.0937C114.167 79.5541 114.826 82.8579 112.137 85.607C111.963 85.7555 108.756 88.4454 104.885 86.5296C102.404 85.2888 101.05 84.6088 100.598 81.028C100.456 79.8697 100.733 78.0121 101.967 76.2812C102.902 74.9568 104.698 73.2929 107.959 72.8896C108.028 72.8796 114.902 72.1138 116.951 78.5383C117.845 81.3458 117.366 84.3337 115.655 86.5288C114.251 88.3302 111.536 90.3455 106.586 89.7396C106.586 89.7396 106.564 89.7357 106.553 89.7337L106.549 89.7554Z" fill="var(--fill-0, white)"/>
<path id="Vector_6" d="M56.977 38.582C57.1101 39.0789 57.2432 39.5758 57.3763 40.0837C57.4317 40.3045 57.5315 40.4923 57.6757 40.6469C57.7976 40.8235 57.9529 40.9671 58.1414 41.0775C58.3299 41.199 58.5406 41.2652 58.7624 41.2762C58.9842 41.3204 59.2059 41.3204 59.4277 41.2431L59.8269 41.0775C60.082 40.9339 60.2705 40.7352 60.4257 40.4812L60.5921 40.0837C60.6697 39.7856 60.6697 39.4985 60.5921 39.2003C60.459 38.7035 60.3259 38.2066 60.1929 37.6986C60.1374 37.4778 60.0376 37.2901 59.8935 37.1355C59.7715 36.9588 59.6162 36.8153 59.4277 36.7048C59.2392 36.5834 59.0285 36.5171 58.8067 36.5061C58.585 36.4619 58.3632 36.4619 58.1414 36.5392L57.7422 36.7048C57.4871 36.8484 57.2986 37.0471 57.1434 37.3011L56.977 37.6986C56.8994 37.9968 56.8994 38.2839 56.977 38.582Z" fill="var(--fill-0, black)"/>
<path id="Vector_7" d="M75.2075 37.5772C75.3406 38.0741 75.4736 38.5709 75.6067 39.0789C75.6621 39.2997 75.7619 39.4874 75.9061 39.642C76.0281 39.8187 76.1833 39.9622 76.3718 40.0727C76.5603 40.1941 76.771 40.2604 76.9928 40.2714C77.2146 40.3156 77.4364 40.3156 77.6582 40.2383L78.0574 40.0727C78.3124 39.9291 78.5009 39.7304 78.6562 39.4764L78.8225 39.0789C78.9001 38.7807 78.9001 38.4937 78.8225 38.1955C78.6894 37.6986 78.5564 37.2017 78.4233 36.6938C78.3679 36.473 78.2681 36.2852 78.1239 36.1307C78.0019 35.954 77.8467 35.8104 77.6582 35.7C77.4697 35.5786 77.259 35.5123 77.0372 35.5013C76.8154 35.4571 76.5936 35.4571 76.3718 35.5344L75.9726 35.7C75.7176 35.8436 75.5291 36.0423 75.3738 36.2963L75.2075 36.6938C75.1299 36.9919 75.1299 37.279 75.2075 37.5772Z" fill="var(--fill-0, black)"/>
</g>
<defs>
<filter id="filter0_n_0_81" x="97.9033" y="70.4763" width="22.179" height="22.0908" filterUnits="userSpaceOnUse" color-interpolation-filters="sRGB">
<feFlood flood-opacity="0" result="BackgroundImageFix"/>
<feBlend mode="normal" in="SourceGraphic" in2="BackgroundImageFix" result="shape"/>
<feTurbulence type="fractalNoise" baseFrequency="5 5" stitchTiles="stitch" numOctaves="3" result="noise" seed="2730" />
<feColorMatrix in="noise" type="luminanceToAlpha" result="alphaNoise" />
<feComponentTransfer in="alphaNoise" result="coloredNoise1">
<feFuncA type="discrete" tableValues="0 0 0 0 0 0 0 0 0 0 0 0 0 0 1 1 1 1 1 1 1 1 1 1 1 1 1 1 1 1 1 1 1 1 1 1 0 0 0 0 0 0 0 0 0 0 0 0 0 0 0 0 0 0 0 0 0 0 0 0 0 0 0 0 0 0 0 0 0 0 0 0 0 0 0 0 0 0 0 0 0 0 0 0 0 0 0 0 0 0 0 0 0 0 0 0 0 0 0 0 "/>
</feComponentTransfer>
<feComposite operator="in" in2="shape" in="coloredNoise1" result="noise1Clipped" />
<feFlood flood-color="rgba(255, 255, 255, 0.49)" result="color1Flood" />
<feComposite operator="in" in2="noise1Clipped" in="color1Flood" result="color1" />
<feMerge result="effect1_noise_0_81">
<feMergeNode in="shape" />
<feMergeNode in="color1" />
</feMerge>
</filter>
<linearGradient id="paint0_linear_0_81" x1="84.0199" y1="-3.74674e-06" x2="51.7546" y2="66.6793" gradientUnits="userSpaceOnUse">
<stop stop-color="#D550F5"/>
<stop offset="1" stop-color="#FF67D1"/>
</linearGradient>
<linearGradient id="paint1_linear_0_81" x1="107.761" y1="51.7936" x2="106.064" y2="71.2043" gradientUnits="userSpaceOnUse">
<stop stop-color="#2200FF"/>
<stop offset="1" stop-color="#C43AFF"/>
</linearGradient>
<linearGradient id="paint2_linear_0_81" x1="100.452" y1="82.0757" x2="118.369" y2="75.1328" gradientUnits="userSpaceOnUse">
<stop stop-color="#9162F7"/>
<stop offset="1" stop-color="#5900DE"/>
</linearGradient>
<radialGradient id="paint3_radial_0_81" cx="0" cy="0" r="1" gradientTransform="matrix(8.46465 16.3796 -7.76009 19.0653 112.311 70.8982)" gradientUnits="userSpaceOnUse">
<stop stop-color="#FF4F69"/>
<stop offset="1" stop-color="#FF19DC" stop-opacity="0"/>
</radialGradient>
</defs>
</svg>
