<svg width="24" height="24" viewBox="0 0 24 24" fill="none" xmlns="http://www.w3.org/2000/svg">
<g transform="translate(4, 4)">
<path d="M8.00098 1.65876e-09C8.69061 0.000291892 9.24985 0.55937 9.25 1.24902V6.75098H14.751C15.4408 6.75112 16 7.31016 16 8C16 8.68988 15.4408 9.24888 14.751 9.24902H9.24902V14.751C9.24888 15.4407 8.68975 15.9999 8 16C7.31014 16 6.75015 15.4408 6.75 14.751V9.24902H1.24902C0.559182 9.24888 3.01724e-08 8.68988 0 8C4.03415e-05 7.31016 0.559206 6.75112 1.24902 6.75098H6.75098V1.24902C6.75113 0.559153 7.31108 -3.51667e-05 8.00098 1.65876e-09Z" fill="black" fill-opacity="0.9"/>
</g>
</svg>
