<svg preserveAspectRatio="xMidYMid meet" width="24" height="24" viewBox="-2.00 -6.00 24 24" fill="none" xmlns="http://www.w3.org/2000/svg">
<path id="Union" d="M18.7361 0C18.7785 8.9807e-06 18.8209 0.001598 18.8631 0.00585938C18.9699 0.0166182 19.0724 0.0423151 19.1697 0.078125C19.1869 0.0844253 19.2045 0.0896061 19.2215 0.0966797C19.2382 0.103663 19.254 0.112445 19.2703 0.120117C19.2903 0.129498 19.3103 0.138924 19.3299 0.149414C19.3442 0.157084 19.3579 0.16563 19.3719 0.173828C19.4635 0.227605 19.5501 0.293159 19.6287 0.37207C19.7069 0.450599 19.7716 0.537364 19.825 0.628906C19.8332 0.642884 19.8418 0.656585 19.8494 0.670898C19.8839 0.735547 19.9119 0.802535 19.9344 0.871094C19.9372 0.879594 19.9406 0.887906 19.9432 0.896484C19.9801 1.0176 19.9988 1.14298 19.9988 1.26855V6.66699C19.9988 7.36779 19.4329 7.93652 18.7352 7.93652C18.0376 7.93635 17.4725 7.36768 17.4725 6.66699V4.33105L12.0301 9.79883L12.0125 9.81641C11.2716 10.5318 10.0618 10.5564 9.30743 9.79883L6.64239 7.12207L2.15606 11.6279C1.66269 12.1235 0.8633 12.1235 0.369931 11.6279C-0.123266 11.1324 -0.123355 10.3295 0.369931 9.83398L5.28106 4.90039C6.03538 4.14276 7.24518 4.1676 7.98614 4.88281L8.0047 4.90039L10.6688 7.57715L15.6863 2.53809H13.3611C12.6634 2.53809 12.0975 1.96935 12.0975 1.26855C12.0977 0.567918 12.6635 0 13.3611 0H18.7361Z" fill="#00A63E"/>
</svg>
