<svg preserveAspectRatio="xMidYMid meet" width="24" height="24" viewBox="-2.00 -6.00 24 24" fill="none" xmlns="http://www.w3.org/2000/svg">
<path id="Union" d="M0.357317 0.382547C0.842449 -0.118203 1.63864 -0.128724 2.13661 0.35911L6.79677 4.92356L9.51259 2.19309C10.2654 1.4362 11.4725 1.46067 12.2118 2.17552C12.2217 2.18511 12.2315 2.19489 12.2411 2.20481L17.4823 7.61888V5.32591C17.4824 4.62692 18.046 4.06028 18.7411 4.06028C19.4362 4.06038 19.9998 4.62698 19.9999 5.32591V10.7341C19.9999 10.7364 19.9989 10.7387 19.9989 10.7409C19.9988 10.7697 19.9961 10.7982 19.994 10.8269C19.9869 10.9247 19.9712 11.0197 19.9433 11.1101C19.8887 11.2868 19.7931 11.4522 19.6601 11.5954C19.6481 11.6083 19.6364 11.6212 19.6239 11.6335C19.622 11.6355 19.621 11.6384 19.619 11.6404C19.6107 11.6486 19.6012 11.6559 19.5927 11.6638C19.572 11.6829 19.5511 11.7017 19.5292 11.7195C19.5127 11.7329 19.4954 11.7451 19.4784 11.7575C19.4648 11.7675 19.4514 11.7775 19.4374 11.7868C19.4138 11.8026 19.3895 11.8168 19.3651 11.8308C19.3525 11.8381 19.3399 11.8454 19.327 11.8523C19.3113 11.8606 19.2952 11.8681 19.2792 11.8757C19.2557 11.8869 19.2322 11.8982 19.2079 11.9079C19.1973 11.9122 19.1864 11.9157 19.1757 11.9197C19.1477 11.93 19.1196 11.9406 19.0907 11.949C19.0772 11.9529 19.0633 11.9553 19.0497 11.9587C19.0264 11.9646 19.0032 11.9707 18.9794 11.9753C18.9599 11.9791 18.9404 11.9813 18.9208 11.9841C18.8981 11.9874 18.8755 11.9909 18.8524 11.9929C18.8332 11.9946 18.8141 11.996 18.7948 11.9968C18.777 11.9976 18.7591 11.9997 18.7411 11.9997H13.3632C12.6681 11.9997 12.1046 11.433 12.1044 10.7341C12.1044 10.0351 12.668 9.46757 13.3632 9.46751H15.7577L10.8651 4.41282L8.16103 7.13255L8.14345 7.15013C7.40649 7.86269 6.20432 7.88889 5.45107 7.13938L0.379778 2.17161C-0.117786 1.68375 -0.127647 0.883163 0.357317 0.382547Z" fill="#CE1D26"/>
</svg>
