<svg preserveAspectRatio="none" width="100%" height="100%" overflow="visible" style="display: block;" viewBox="0 0 16 16" fill="none" xmlns="http://www.w3.org/2000/svg">
<path id="arrow" d="M14.7541 6.62461H4.17879L7.90656 2.33997C8.38499 1.78783 8.36505 0.915444 7.87665 0.385387C7.37829 -0.144671 6.59087 -0.122585 6.11244 0.418515L0.351347 7.04424C-0.117116 7.57429 -0.117116 8.42459 0.351347 8.95465L6.11244 15.5804C6.36163 15.8564 6.68058 16 7.0095 16C7.33842 16 7.62747 15.8675 7.87665 15.6135C8.37502 15.0834 8.38499 14.2111 7.90656 13.6589L4.17879 9.37428H14.7541C15.4418 9.37428 16 8.75588 16 7.99392C16 7.23196 15.4418 6.61356 14.7541 6.61356V6.62461Z" fill="var(--fill-0, black)" fill-opacity="0.9"/>
</svg>
