<svg preserveAspectRatio="xMidYMid meet" width="24" height="24" viewBox="-2.00 -2.00 24 24" fill="none" xmlns="http://www.w3.org/2000/svg">
<g id="Vector">
<path d="M5.74 8.94H3.24C1.45 8.94 0 7.49 0 5.71V3.23C0 1.45 1.46 0 3.24 0H5.74C7.53 0 8.98 1.45 8.98 3.23V5.71C8.98 7.49 7.52 8.94 5.74 8.94ZM3.24 2.48C2.83 2.48 2.49 2.82 2.49 3.22V5.7C2.49 6.1 2.83 6.44 3.24 6.44H5.74C6.15 6.44 6.49 6.1 6.49 5.7V3.22C6.49 2.82 6.15 2.48 5.74 2.48H3.24Z" fill="var(--fill-0, black)" fill-opacity="0.9"/>
<path d="M5.74 20.0001H3.24C1.45 20.0001 0 18.5501 0 16.7701V14.2901C0 12.5101 1.46 11.0601 3.24 11.0601H5.74C7.53 11.0601 8.98 12.5101 8.98 14.2901V16.7701C8.98 18.5501 7.52 20.0001 5.74 20.0001ZM3.24 13.5501C2.83 13.5501 2.49 13.8901 2.49 14.2901V16.7701C2.49 17.1701 2.83 17.5101 3.24 17.5101H5.74C6.15 17.5101 6.49 17.1701 6.49 16.7701V14.2901C6.49 13.8901 6.15 13.5501 5.74 13.5501H3.24Z" fill="var(--fill-0, black)" fill-opacity="0.9"/>
<path d="M16.76 20.0001H14.26C12.47 20.0001 11.02 18.5501 11.02 16.7701V14.2901C11.02 12.5101 12.48 11.0601 14.26 11.0601H16.76C18.55 11.0601 20 12.5101 20 14.2901V16.7701C20 18.5501 18.54 20.0001 16.76 20.0001ZM14.26 13.5501C13.85 13.5501 13.51 13.8901 13.51 14.2901V16.7701C13.51 17.1701 13.85 17.5101 14.26 17.5101H16.76C17.17 17.5101 17.51 17.1701 17.51 16.7701V14.2901C17.51 13.8901 17.17 13.5501 16.76 13.5501H14.26Z" fill="var(--fill-0, black)" fill-opacity="0.9"/>
<path d="M16.76 8.94H14.26C12.47 8.94 11.02 7.49 11.02 5.71V3.23C11.02 1.45 12.48 0 14.26 0H16.76C18.55 0 20 1.45 20 3.23V5.71C20 7.49 18.54 8.94 16.76 8.94ZM14.26 2.49C13.85 2.49 13.51 2.83 13.51 3.23V5.71C13.51 6.11 13.85 6.45 14.26 6.45H16.76C17.17 6.45 17.51 6.11 17.51 5.71V3.23C17.51 2.83 17.17 2.49 16.76 2.49H14.26Z" fill="var(--fill-0, black)" fill-opacity="0.9"/>
</g>
</svg>
