<svg preserveAspectRatio="xMidYMid meet" width="24" height="24" viewBox="-2.00 -2.00 24 24" fill="none" xmlns="http://www.w3.org/2000/svg">
<g id="Union">
<path d="M1.23828 0C1.92194 0.000222013 2.47656 0.554567 2.47656 1.23828V13.8086C2.47679 15.8584 4.14058 17.5233 6.19043 17.5234H18.7617L18.8877 17.5293C19.5121 17.5927 20 18.1206 20 18.7617C19.9998 19.4027 19.512 19.9298 18.8877 19.9932L18.7617 20H6.19043C2.77288 19.9998 0.000229939 17.2261 0 13.8086V1.23828C0 0.55443 0.55443 0 1.23828 0Z" fill="var(--fill-0, black)" fill-opacity="0.9"/>
<path d="M16.7471 3.98633C17.1548 3.43773 17.9297 3.32314 18.4785 3.73047C19.0273 4.13814 19.1427 4.91396 18.7354 5.46289L14.6143 11.0107C14.4183 11.2745 14.1249 11.4493 13.7998 11.4971C13.4745 11.5447 13.1435 11.4603 12.8799 11.2637L10.21 9.27344L7.10547 13.1289C6.67652 13.6614 5.89681 13.7452 5.36426 13.3164C4.83184 12.8875 4.74795 12.1077 5.17676 11.5752L9.0293 6.79102C9.44702 6.27235 10.2015 6.17702 10.7354 6.5752L13.3652 8.53711L16.7471 3.98633Z" fill="var(--fill-0, black)" fill-opacity="0.9"/>
</g>
</svg>
