<svg preserveAspectRatio="xMidYMid meet" width="24" height="24" viewBox="-3.00 -3.00 24 24" fill="none" xmlns="http://www.w3.org/2000/svg">
<path id="Rectangle 12287 (Stroke)" fill-rule="evenodd" clip-rule="evenodd" d="M12 2.5H6C4.067 2.5 2.5 4.067 2.5 6V14.2404L3.91961 13.6449C4.96072 13.2082 6.07839 12.9833 7.20738 12.9833H12C13.933 12.9833 15.5 11.4163 15.5 9.48334V6C15.5 4.067 13.933 2.5 12 2.5ZM4.8866 15.9503C5.6215 15.6421 6.41045 15.4833 7.20738 15.4833H12C15.3137 15.4833 18 12.797 18 9.48334V6C18 2.68629 15.3137 0 12 0H6C2.68629 0 0 2.68629 0 6V18L4.8866 15.9503Z" fill="var(--fill-0, black)" fill-opacity="0.9"/>
</svg>
