<svg preserveAspectRatio="xMidYMid meet" width="24" height="24" overflow="visible" style="display: block;" viewBox="0 0 20 20" fill="none" xmlns="http://www.w3.org/2000/svg">
<path id="Vector" d="M8.05762 19.99C7.96821 19.99 7.87879 19.99 7.77943 19.9598C6.32886 19.6284 4.9379 18.9554 3.76552 18.0113C3.22901 17.5794 3.13959 16.7859 3.56682 16.2436C3.99404 15.7012 4.77894 15.6108 5.31545 16.0427C6.18977 16.7458 7.23299 17.258 8.32588 17.5091C8.99156 17.6598 9.41878 18.3327 9.25981 19.0057C9.13065 19.5882 8.61401 19.9799 8.04769 19.9799L8.05762 19.99ZM11.9523 19.99C11.386 19.99 10.8793 19.5982 10.7402 19.0157C10.5912 18.3428 11.0084 17.6698 11.6741 17.5091C12.767 17.258 13.8003 16.7458 14.6846 16.0427C15.2211 15.6108 16.006 15.7012 16.4332 16.2436C16.8604 16.7859 16.771 17.5794 16.2345 18.0113C15.072 18.9554 13.6811 19.6284 12.2305 19.9699C12.1411 19.99 12.0417 20 11.9523 20V19.99ZM2.11624 15.2191C1.65922 15.2191 1.21212 14.958 0.993542 14.506C0.337804 13.13 0 11.6636 0 10.1268C0 9.4338 0.556384 8.87134 1.24193 8.87134C1.92747 8.87134 2.48386 9.4338 2.48386 10.1268C2.48386 11.2819 2.74218 12.3867 3.22901 13.4212C3.52707 14.044 3.26875 14.7973 2.65276 15.0986C2.47392 15.1789 2.29508 15.2191 2.11624 15.2191ZM17.8838 15.199C17.7049 15.199 17.5161 15.1588 17.3472 15.0785C16.7312 14.7772 16.4729 14.0239 16.771 13.4011C17.2578 12.3666 17.5161 11.2618 17.5161 10.1067C17.5161 10.0766 17.5161 10.0364 17.5161 10.0063C17.5161 9.31327 18.0725 8.78095 18.7581 8.78095C19.4436 8.78095 20 9.37354 20 10.0666C20 10.0766 20 10.0967 20 10.1168C20 11.6435 19.6622 13.1099 19.0164 14.4859C18.8077 14.9379 18.3607 15.199 17.8937 15.199H17.8838ZM2.09637 7.5355C1.91754 7.5355 1.72876 7.49533 1.55986 7.41498C0.943865 7.11366 0.675609 6.37041 0.973671 5.73764C1.61947 4.38171 2.57327 3.1664 3.73572 2.22227C4.27223 1.79038 5.05713 1.87074 5.48435 2.41311C5.91157 2.95548 5.82216 3.74895 5.29558 4.18084C4.42126 4.89395 3.69598 5.80795 3.21908 6.82238C3.01043 7.27436 2.56334 7.5355 2.09637 7.5355ZM17.8738 7.48528C17.4168 7.48528 16.9697 7.22414 16.7611 6.78221C16.2742 5.76777 15.5489 4.85378 14.6647 4.1507C14.1282 3.71882 14.0387 2.92535 14.466 2.38298C14.8932 1.8406 15.6781 1.75021 16.2146 2.1821C17.387 3.11618 18.3507 4.33149 18.9965 5.68742C19.2946 6.31015 19.0363 7.06344 18.4203 7.36476C18.2414 7.45515 18.0626 7.49533 17.8738 7.49533V7.48528ZM8.01788 2.73451C7.45156 2.73451 6.94486 2.3428 6.80576 1.76025C6.65673 1.08731 7.07402 0.414368 7.73969 0.253666C9.19026 -0.0777833 10.7402 -0.0878272 12.1808 0.243622C12.8465 0.394281 13.2737 1.06722 13.1247 1.74016C12.9757 2.41311 12.31 2.845 11.6443 2.69434C10.5514 2.44324 9.37904 2.45328 8.29608 2.70438C8.20666 2.72447 8.1073 2.73451 8.01788 2.73451Z" fill="rgba(255,255,255,0.9)"/>
</svg>
