<svg width="16" height="16" viewBox="0 0 16 16" fill="none" xmlns="http://www.w3.org/2000/svg">
<g transform="translate(1.3333, 1.3333)">
<path d="M6.66953 0C5.02279 0 3.44299 0.601504 2.18451 1.73099L1.99039 1.92481L1.45486 1.39014C1.31429 1.24979 1.11346 1.20969 0.926032 1.27652C0.745292 1.34336 0.611411 1.51044 0.598023 1.70426L0.363731 4.30409C0.350343 4.45113 0.403895 4.59816 0.511 4.7051C0.618105 4.81203 0.765374 4.8655 0.912643 4.85213L3.51663 4.61821C3.71076 4.59816 3.87811 4.47118 3.94505 4.29073C4.01199 4.11028 3.96513 3.90309 3.83125 3.76274L3.18193 3.11445L3.34258 2.95405C4.25967 2.132 5.44452 1.68421 6.67622 1.68421C9.24674 1.68421 11.4424 3.68254 11.6633 6.24227C11.7035 6.67669 12.0649 7.00418 12.4934 7.00418C12.5201 7.00418 12.5402 7.00418 12.567 7.00418C13.0289 6.96408 13.3703 6.55639 13.3301 6.10192C13.0289 2.6934 10.1036 0.0200501 6.67622 0.0200501L6.66953 0Z" fill="black" fill-opacity="0.9"/>
<path d="M12.5134 8.528L9.90946 8.76192C9.71533 8.78197 9.54798 8.90895 9.48104 9.0894C9.4141 9.26985 9.46096 9.47704 9.59484 9.61739L10.1839 10.2055L10.0032 10.386C9.08609 11.208 7.90125 11.6558 6.66954 11.6625C4.07894 11.6625 1.88329 9.64412 1.67578 7.07102C1.63561 6.60987 1.24736 6.26902 0.772081 6.30244C0.310191 6.34254 -0.0312058 6.74354 0.00226447 7.20469C0.276721 10.6466 3.20202 13.3333 6.66285 13.3333C8.30958 13.3333 9.88938 12.7252 11.1479 11.6024L11.3621 11.3885L11.9578 11.9833C12.0984 12.1237 12.2992 12.1638 12.4867 12.0969C12.6674 12.0301 12.8013 11.863 12.8147 11.6692L13.049 9.06935C13.0624 8.92232 13.0088 8.77528 12.9017 8.66835C12.7946 8.56142 12.6473 8.50795 12.5001 8.52132L12.5134 8.528Z" fill="black" fill-opacity="0.9"/>
</g>
</svg>
