<svg preserveAspectRatio="xMidYMid meet" width="24" height="24" viewBox="-2.00 -2.00 24 24" fill="none" xmlns="http://www.w3.org/2000/svg">
<g id="Vector">
<path fill-rule="evenodd" clip-rule="evenodd" d="M10 2.52016C5.869 2.52016 2.52016 5.869 2.52016 10C2.52016 14.131 5.869 17.4798 10 17.4798C14.131 17.4798 17.4798 14.131 17.4798 10C17.4798 5.869 14.131 2.52016 10 2.52016ZM0 10C0 4.47715 4.47715 0 10 0C15.5228 0 20 4.47715 20 10C20 15.5228 15.5228 20 10 20C4.47715 20 0 15.5228 0 10Z" fill="var(--fill-0, black)" fill-opacity="0.9"/>
<path d="M13.3642 6.09879H7.14718C6.60283 6.09879 6.1492 6.54234 6.1492 7.09677C6.1492 7.65121 6.59275 8.09476 7.14718 8.09476H10.0907C10.5141 8.09476 10.8569 8.4375 10.8569 8.86089C10.8569 9.28427 10.5141 9.62701 10.0907 9.62701H7.14718C6.73388 9.62701 6.37097 9.87903 6.20968 10.2722C6.05847 10.6552 6.16936 11.0988 6.48186 11.371L10.3831 14.8286C10.5645 14.9899 10.7964 15.0806 11.0484 15.0806C11.3306 15.0806 11.6028 14.9597 11.7944 14.748C11.9758 14.5464 12.0665 14.2944 12.0464 14.0222C12.0262 13.75 11.9153 13.5081 11.7137 13.3367L9.77823 11.623H10.0907C11.6129 11.623 12.8427 10.3831 12.8427 8.86089C12.8427 8.59879 12.8024 8.34677 12.7419 8.10484H13.3642C13.9086 8.10484 14.3622 7.66129 14.3622 7.10685C14.3622 6.55242 13.9186 6.10887 13.3642 6.10887V6.09879Z" fill="var(--fill-0, black)" fill-opacity="0.9"/>
</g>
</svg>
