<svg preserveAspectRatio="xMidYMid meet" width="24" height="24" viewBox="-3.00 -2.00 24 24" fill="none" xmlns="http://www.w3.org/2000/svg">
<path id="Vector (Stroke)" fill-rule="evenodd" clip-rule="evenodd" d="M5.28149 2.51582C3.75714 2.51582 2.52297 3.74648 2.52297 5.26651V16.4204C2.52297 17.2339 3.43018 17.7281 4.11984 17.281C4.12012 17.2809 4.11957 17.2812 4.11984 17.281L7.03001 15.3832C8.21002 14.6246 9.71961 14.6246 10.8996 15.3833L10.9025 15.3851L13.786 17.2502C13.8213 17.2686 13.8558 17.2887 13.8894 17.3106C14.5747 17.7556 15.477 17.2696 15.477 16.4505V5.26651C15.477 3.74648 14.2429 2.51582 12.7185 2.51582H5.28149ZM0 5.26651C0 2.35703 2.36374 0 5.28149 0H12.7185C15.6363 0 18 2.35703 18 5.26651V16.4505C18 19.2155 14.9786 20.9048 12.6235 19.4881C12.5827 19.4677 12.5429 19.4449 12.5044 19.42L9.53248 17.4977C9.53213 17.4975 9.53177 17.4972 9.53141 17.497C9.18493 17.2748 8.74679 17.2745 8.39999 17.4959C8.39905 17.4965 8.39811 17.4971 8.39717 17.4977L5.49762 19.3886C3.13217 20.9249 0 19.2345 0 16.4204V5.26651Z" fill="var(--fill-0, black)" fill-opacity="0.9"/>
</svg>
