<svg preserveAspectRatio="xMidYMid meet" width="24" height="24" viewBox="-2.00 -3.00 24 24" fill="none" xmlns="http://www.w3.org/2000/svg">
<g id="settings">
<path fill-rule="evenodd" clip-rule="evenodd" d="M20.0001 4C20.0001 6.20914 18.2092 8 16.0001 8C14.3214 8 12.8842 6.96592 12.2908 5.5H1.78397C1.07495 5.5 0.500183 4.82843 0.500183 4C0.500183 3.17157 1.07495 2.5 1.78397 2.5H12.2908C12.8842 1.03408 14.3214 0 16.0001 0C18.2092 0 20.0001 1.79086 20.0001 4ZM17.5002 4C17.5002 4.82843 16.8286 5.5 16.0002 5.5C15.1718 5.5 14.5002 4.82843 14.5002 4C14.5002 3.17157 15.1718 2.5 16.0002 2.5C16.8286 2.5 17.5002 3.17157 17.5002 4Z" fill="var(--fill-0, black)" fill-opacity="0.9"/>
<path fill-rule="evenodd" clip-rule="evenodd" d="M4 18C1.79086 18 0 16.2091 0 14C0 11.7909 1.79086 10 4 10C5.67869 10 7.11585 11.0341 7.70924 12.5H18.2163C18.9253 12.5 19.5001 13.1716 19.5001 14C19.5001 14.8284 18.9253 15.5 18.2163 15.5H7.70924C7.11585 16.9659 5.67869 18 4 18ZM5.50006 14C5.50006 14.8284 4.82849 15.5 4.00006 15.5C3.17163 15.5 2.50006 14.8284 2.50006 14C2.50006 13.1716 3.17163 12.5 4.00006 12.5C4.82849 12.5 5.50006 13.1716 5.50006 14Z" fill="var(--fill-0, black)" fill-opacity="0.9"/>
</g>
</svg>
