<svg preserveAspectRatio="xMidYMid meet" width="24" height="24" viewBox="-2.00 -2.00 24 24" fill="none" xmlns="http://www.w3.org/2000/svg">
<path id="Vector" d="M15.8549 11.6642C14.5527 11.6642 13.3996 12.2839 12.6441 13.2334L8.21074 10.8046C8.26044 10.5447 8.29026 10.2749 8.29026 10.005C8.29026 9.73513 8.26044 9.46527 8.21074 9.2054L12.6441 6.77661C13.3996 7.72614 14.5527 8.34583 15.8549 8.34583C18.1412 8.34583 20 6.47676 20 4.17791C20 1.87906 18.1412 0 15.8549 0C13.5686 0 11.7097 1.86907 11.7097 4.16792C11.7097 4.25787 11.7296 4.34783 11.7396 4.43778C11.7097 4.44778 11.67 4.44778 11.6402 4.46777L7.01789 7.0065C6.27237 6.28686 5.26839 5.83708 4.15507 5.83708C1.85885 5.82709 0 7.69615 0 9.995C0 12.2939 1.85885 14.1629 4.14513 14.1629C5.25845 14.1629 6.26243 13.7131 7.00795 12.9935L11.6402 15.5322C11.6402 15.5322 11.7097 15.5622 11.7396 15.5722C11.7396 15.6622 11.7097 15.7421 11.7097 15.8321C11.7097 18.1309 13.5686 20 15.8549 20C18.1412 20 20 18.1309 20 15.8321C20 13.5332 18.1412 11.6642 15.8549 11.6642ZM15.8549 2.49875C16.7694 2.49875 17.5149 3.24838 17.5149 4.16792C17.5149 5.08746 16.7694 5.83708 15.8549 5.83708C14.9404 5.83708 14.1948 5.08746 14.1948 4.16792C14.1948 3.24838 14.9404 2.49875 15.8549 2.49875ZM4.14513 11.6642C3.23062 11.6642 2.48509 10.9145 2.48509 9.995C2.48509 9.07546 3.23062 8.32584 4.14513 8.32584C5.05964 8.32584 5.80517 9.07546 5.80517 9.995C5.80517 10.9145 5.05964 11.6642 4.14513 11.6642ZM15.8549 17.4913C14.9404 17.4913 14.1948 16.7416 14.1948 15.8221C14.1948 14.9025 14.9404 14.1529 15.8549 14.1529C16.7694 14.1529 17.5149 14.9025 17.5149 15.8221C17.5149 16.7416 16.7694 17.4913 15.8549 17.4913Z" fill="var(--fill-0, black)" fill-opacity="0.9"/>
</svg>
