<svg preserveAspectRatio="xMidYMid meet" width="24" height="24" viewBox="-3.00 -2.00 24 24" fill="none" xmlns="http://www.w3.org/2000/svg">
<path id="PIN" d="M8.99375 2.84287C9.05177 2.84287 9.1098 2.84286 9.17943 2.86507C10.9782 3.38701 12.7885 3.89783 14.5873 4.41977L14.8194 4.4864C14.947 4.51971 15.0283 4.63076 15.0283 4.75292V7.50694V8.67296C15.0283 9.59467 15.0283 10.5053 15.0283 11.427C15.0283 12.0378 14.8426 12.5708 14.4016 13.1705C13.8098 13.97 12.9974 14.7029 11.7673 15.558C10.9782 16.1022 10.1078 16.6241 9.16782 17.1016C9.09819 17.1349 9.02856 17.146 8.98214 17.146C8.92412 17.146 8.8661 17.1349 8.80807 17.1016C7.21821 16.2909 5.89526 15.4248 4.78119 14.4475C4.47947 14.181 4.21256 13.9367 3.99206 13.6924C3.31898 12.9595 2.94763 11.9489 2.94763 10.8717V4.74181C2.94763 4.63076 3.02886 4.53082 3.14491 4.4975L3.28417 4.45308C5.12934 3.92004 6.9629 3.39811 8.80807 2.86507C8.8661 2.84286 8.92412 2.84287 8.99375 2.84287ZM8.99375 0C8.6456 0 8.29746 0.0444198 7.96092 0.144364C6.08094 0.688506 4.18935 1.23265 2.30936 1.76569C0.939992 2.16546 0 3.3759 0 4.74181C0 6.78512 0 8.82843 0 10.8828C0 12.6041 0.603452 14.2921 1.78715 15.5802C2.10048 15.9245 2.44862 16.2576 2.80837 16.5686C4.21256 17.7901 5.7676 18.7785 7.4271 19.6224C7.9145 19.8778 8.45993 20 8.99375 20C9.52757 20 10.0846 19.8778 10.5836 19.6224C11.6048 19.1005 12.5796 18.523 13.5196 17.8679C14.7614 17.0017 15.9218 16.0466 16.827 14.8362C17.5929 13.8034 18.0223 12.6818 17.9991 11.3937C17.9759 10.1055 17.9991 8.81732 17.9991 7.52915C17.9991 6.60744 17.9991 5.68573 17.9991 4.77513C17.9991 3.39811 17.0591 2.18767 15.6781 1.7879C13.7982 1.24375 11.9182 0.710716 10.0382 0.166574C9.70165 0.0666297 9.37599 0 9.02784 0H8.99375Z" fill="var(--fill-0, black)" fill-opacity="0.9"/>
</svg>
