<svg preserveAspectRatio="xMidYMid meet" width="24" height="24" viewBox="-4.50 -2.00 24 24" fill="none" xmlns="http://www.w3.org/2000/svg">
<path id="Vector (Stroke)" fill-rule="evenodd" clip-rule="evenodd" d="M9.43982 0.064313C9.96083 0.235651 10.3125 0.718574 10.3125 1.2627V7.7475H13.7262C14.2106 7.7475 14.6531 8.01984 14.8679 8.45021C15.0827 8.88058 15.0327 9.39447 14.7388 9.77616L7.24896 19.5034C6.91751 19.9338 6.34606 20.1068 5.82853 19.9334C5.31099 19.76 4.96264 19.2788 4.96264 18.7373V12.8485H1.27378C0.79196 12.8485 0.351375 12.579 0.135289 12.1521C-0.0807975 11.7252 -0.0353961 11.214 0.252608 10.8311L8.01754 0.507984C8.34566 0.0717643 8.91881 -0.107025 9.43982 0.064313ZM3.81237 10.3232H6.23641C6.9399 10.3232 7.51019 10.8885 7.51019 11.5858V15.0019L11.1516 10.2727H9.03872C8.33523 10.2727 7.76494 9.70743 7.76494 9.01011V5.06845L3.81237 10.3232Z" fill="var(--fill-0, black)" fill-opacity="0.9"/>
</svg>
