<svg preserveAspectRatio="xMidYMid meet" width="24" height="24" viewBox="-2.00 -2.00 24 24" fill="none" xmlns="http://www.w3.org/2000/svg">
<g id="Vector">
<path d="M9.99727 2.56385C11.0595 2.56385 12.1316 2.67401 13.1938 2.89434C14.1479 3.09464 15.0724 3.38508 15.9281 3.8658C16.2822 4.0661 16.6166 4.29644 16.9215 4.57686C17.0198 4.70706 17.128 4.83725 17.2264 4.97746C17.3542 5.16775 17.4231 5.37807 17.4231 5.61843C17.4231 5.95894 17.4231 6.29945 17.4231 6.63996C17.4231 6.8002 17.3936 6.96044 17.3542 7.12068C17.2362 7.63144 16.9018 7.92188 16.41 8.02203C16.2527 8.05208 16.0855 8.0721 15.9281 8.0721C15.7707 8.0721 15.5937 8.06209 15.4265 8.04206C15.0429 7.99198 14.6691 7.92188 14.3052 7.78167C13.7741 7.57135 13.479 7.18077 13.4594 6.5999C13.4495 6.36955 13.4397 6.13921 13.4495 5.89885C13.4495 5.6685 13.3512 5.50826 13.1741 5.38808C12.9184 5.20781 12.6234 5.12769 12.3283 5.0676C11.7185 4.93741 11.0988 4.90736 10.4792 4.89734C10.3022 4.89734 10.1251 4.89734 9.94809 4.89734C9.31862 4.89734 8.68914 4.92739 8.0695 5.00751C7.69576 5.05758 7.33184 5.12769 6.9876 5.27792C6.84006 5.34802 6.69253 5.42814 6.59418 5.56835C6.52533 5.65849 6.49582 5.75864 6.49582 5.87882C6.49582 6.11918 6.49582 6.35954 6.49582 6.5999C6.47615 7.21081 6.18108 7.62143 5.63029 7.82173C5.13852 8.002 4.62707 8.11216 4.10579 8.11216C3.94842 8.11216 3.78121 8.10215 3.62385 8.08212C3.04355 8.002 2.70914 7.6715 2.58128 7.10065C2.56161 7.01051 2.54194 6.92038 2.5321 6.82023C2.5321 6.38958 2.51243 5.96895 2.5321 5.53831C2.5321 5.2679 2.68947 5.03755 2.85667 4.83725C3.20092 4.40661 3.64352 4.10616 4.12546 3.85578C5.05983 3.34502 6.06306 3.04457 7.10562 2.85428C8.07934 2.67401 9.06289 2.58388 10.0366 2.58388M10.0366 0C8.91536 0 7.78427 0.10015 6.66302 0.310466C5.24671 0.570856 4.0271 0.981472 2.93536 1.57236C2.38457 1.87281 1.56822 2.36354 0.899404 3.20481C0.683023 3.4652 0.0338779 4.27641 0.00437135 5.47822C-0.00546418 5.87882 0.00437135 6.27942 0.00437135 6.69003V6.89033C0.0142069 7.25087 0.0830556 7.54131 0.112562 7.69153C0.486312 9.334 1.67641 10.4356 3.28944 10.666C3.56483 10.7061 3.84023 10.7261 4.11562 10.7261C4.89263 10.7261 5.66964 10.5859 6.48598 10.2854C7.77444 9.82473 8.6498 8.82323 8.94487 7.54131C9.24977 7.52128 9.58418 7.51126 9.96776 7.51126C10.1251 7.51126 10.2923 7.51126 10.4497 7.51126C10.6464 7.51126 10.853 7.52128 11.0595 7.53129C11.3546 8.76314 12.2004 9.74461 13.42 10.2253C14.079 10.4857 14.6888 10.5759 15.1511 10.636C15.4462 10.676 15.7019 10.686 15.9576 10.686C16.3018 10.686 16.6166 10.656 16.9313 10.5859C18.4066 10.2854 19.4984 9.23385 19.8525 7.77166C19.941 7.41111 19.9902 7.0706 20 6.75012C20 6.50976 20 6.27942 20 6.03906C20 5.91888 20 5.7987 20 5.67852C20 4.92739 19.7836 4.19629 19.3705 3.56535C19.2722 3.41512 19.1541 3.2649 19.046 3.12469L18.8394 2.85428L18.682 2.70406C18.2394 2.29344 17.7575 1.94291 17.187 1.63245C16.174 1.06159 15.0429 0.660991 13.7348 0.390586C12.5152 0.14021 11.2759 0.010015 10.0366 0.010015V0Z" fill="var(--fill-0, black)" fill-opacity="0.9"/>
<path d="M9.95795 15.0626C11.0444 15.0626 11.9251 14.1658 11.9251 13.0596C11.9251 11.9534 11.0444 11.0566 9.95795 11.0566C8.87155 11.0566 7.99084 11.9534 7.99084 13.0596C7.99084 14.1658 8.87155 15.0626 9.95795 15.0626Z" fill="var(--fill-0, black)" fill-opacity="0.9"/>
<path d="M13.8036 20H6.04337C3.36811 20 1.19446 17.7867 1.19446 15.0626V13.6905C1.19446 12.9995 1.74525 12.4387 2.4239 12.4387C3.10255 12.4387 3.65334 12.9995 3.65334 13.6905V15.0626C3.65334 16.4046 4.72541 17.4962 6.04337 17.4962H13.8036C15.1216 17.4962 16.1936 16.4046 16.1936 15.0626V13.6905C16.1936 12.9995 16.7444 12.4387 17.4231 12.4387C18.1017 12.4387 18.6525 12.9995 18.6525 13.6905V15.0626C18.6525 17.7867 16.4789 20 13.8036 20Z" fill="var(--fill-0, black)" fill-opacity="0.9"/>
</g>
</svg>
