<svg width="36" height="36" viewBox="0 0 36 36" fill="none" xmlns="http://www.w3.org/2000/svg">
<g clip-path="url(#clip0_4_14978)">
<rect width="36" height="36" rx="18" fill="#2B39FF"/>
<path d="M2.27407 19.8162C2.19409 20.163 2.19751 20.5177 2.26163 20.866C2.33765 21.2154 2.4766 21.5341 2.67846 21.8221C2.88032 22.1102 3.14732 22.3433 3.45676 22.5072C3.76619 22.671 4.09312 22.7754 4.43976 22.7962L5.83377 22.9287C6.57359 22.9869 7.3033 22.763 7.89706 22.3184C8.49194 21.8618 8.90099 21.2041 9.05237 20.4731L10.0287 15.7389C10.1087 15.3921 10.1053 15.0374 10.0412 14.6892C9.96515 14.3398 9.82621 14.0211 9.62435 13.733C9.42249 13.445 9.15548 13.2118 8.84605 13.048C8.53661 12.8841 8.20969 12.7797 7.86305 12.759L6.46904 12.6264C5.7281 12.5804 4.99839 12.8043 4.41654 13.25C3.82166 13.7066 3.41373 14.3522 3.25043 15.0821L2.27407 19.8162Z" fill="url(#paint0_linear_4_14978)"/>
<path d="M3.39433 19.9225C3.31547 20.2571 3.31889 20.6119 3.38301 20.9601C3.44823 21.2963 3.59798 21.6282 3.80095 21.9042C4.00393 22.1801 4.2579 22.4242 4.56734 22.5881C4.86375 22.7629 5.20259 22.8684 5.53731 22.888L6.93132 23.0206C7.67114 23.0788 8.41277 22.856 9.00653 22.4114C9.60141 21.9548 10.0224 21.2983 10.1857 20.5683L11.1263 15.8308C11.2052 15.4961 11.2017 15.1414 11.1376 14.7932C11.0724 14.457 10.9226 14.1251 10.7197 13.8491C10.5167 13.5732 10.2627 13.3291 9.95329 13.1652C9.65688 12.9904 9.31804 12.8848 8.98332 12.8652L7.60122 12.7338C6.86028 12.6878 6.11977 12.8984 5.52489 13.3551C4.93113 13.7996 4.51017 14.4562 4.33384 15.197L3.39322 19.9346L3.39433 19.9225Z" fill="#2201A7"/>
<path d="M35.9999 26.4797V30.7489C35.9999 34.3307 33.1461 37.2395 29.6163 37.2395H27.7731L27.7517 37.2757C27.7517 37.2757 25.2282 37.331 27.7731 37.2395C17.2198 52.7273 6.40409 47.5229 15.4346 37.2363L7.28412 37.2395L6.65074 37.2033C5.42667 37.0875 4.30224 36.61 3.37707 35.8719C3.2632 34.9168 3.18492 33.9689 3.14222 33.0788C3.11375 32.5796 3.09951 32.102 3.08528 31.6534V31.4942C3.07816 31.1034 3.07105 30.7344 3.07105 30.4016C3.06393 28.9544 3.12087 28.0065 3.12087 28.0065C3.74713 14.7648 9.0206 10.1193 9.0206 10.1193C12.885 5.98759 16.728 5.87905 19.0622 6.37109C20.4856 6.675 21.9231 5.91523 22.5209 4.61276C25.0189 2.61565 25.7377 6.13954 25.7377 6.13954C28.1929 2.53605 29.5522 6.37109 29.5522 6.37109C29.3031 9.97457 32.6124 18.9182 35.9999 26.4797Z" fill="#4ED0F9"/>
<path d="M13.7171 22.9061L10.8206 23.977C10.5431 24.0855 10.4434 24.4401 10.6498 24.6572C11.0199 25.0841 11.7244 25.5834 12.7848 25.3084C12.7848 25.3084 14.2509 24.9683 14.2011 23.2317C14.2011 22.9857 13.9377 22.8337 13.7171 22.9061Z" fill="black"/>
<path d="M11.3336 17.5694C11.0631 17.5838 10.8852 17.8588 10.9991 18.1121C11.3763 18.9731 12.3513 20.6012 14.593 20.5071C14.593 20.5071 17.2546 20.3769 18.3791 17.8154C18.493 17.5477 18.2937 17.2582 18.0019 17.2655L11.3193 17.5694H11.3336Z" fill="black"/>
<path d="M2.82147 18.1564C2.55815 18.1709 2.39446 18.4459 2.49409 18.6919C2.87128 19.5457 3.88185 21.1738 6.1236 21.0436C6.1236 21.0436 8.79236 20.8844 9.88833 18.2939C9.99508 18.0262 9.80293 17.744 9.51826 17.7585L2.82147 18.1492V18.1564Z" fill="black"/>
<path d="M7.04496 12.7362C7.86096 11.3859 9.82799 9.27323 9.82799 9.27323C9.82799 9.27323 9.75084 8.12207 11.2608 7.17384C12.114 6.52177 13.529 6.32465 14.5916 6.40127L21.657 7.07321C22.1347 7.10642 22.6143 7.24979 23.0492 7.48668C23.1855 7.57296 23.3337 7.66038 23.4558 7.76975C23.7143 7.96542 23.9455 8.19515 24.1377 8.45783C24.4249 8.86397 24.6361 9.31176 24.7356 9.79782C24.834 10.296 24.8359 10.7972 24.7318 11.2761L23.7402 16.0455L27.0643 16.3616L28.1121 11.2432C28.2546 10.6091 28.2671 9.95037 28.1333 9.31442C28.099 9.16451 28.0647 9.01461 28.0174 8.87569C27.8691 8.39722 27.6449 7.9604 27.3578 7.55427C26.9734 7.02891 26.4848 6.59139 25.9244 6.28147C25.3651 5.95943 24.7448 5.77824 24.1133 5.71818L13.5808 4.71651C12.2073 4.62254 10.8476 5.03092 9.73714 5.86627C8.63747 6.71487 7.86515 7.92454 7.55938 9.28857L7.04496 12.7362Z" fill="url(#paint1_linear_4_14978)"/>
<path d="M21.7993 19.5004C21.7204 19.835 21.7239 20.1898 21.788 20.538C21.8532 20.8742 22.0029 21.2061 22.2059 21.4821C22.4089 21.758 22.6629 22.0021 22.9723 22.166C23.2687 22.3408 23.6075 22.4463 23.9423 22.466L25.3363 22.5985C26.0761 22.6567 26.8177 22.4339 27.4234 21.9905C28.0183 21.5338 28.4392 20.8773 28.6025 20.1474L29.5432 15.4099C29.622 15.0752 29.6186 14.7205 29.5545 14.3722C29.4893 14.0361 29.3395 13.7041 29.1365 13.4282C28.9336 13.1522 28.6796 12.9081 28.3702 12.7443C28.0737 12.5694 27.7349 12.4639 27.4002 12.4443L26.0062 12.3117C25.2652 12.2657 24.5247 12.4763 23.9299 12.933C23.3361 13.3776 22.9151 14.0341 22.7388 14.775L21.7982 19.5125L21.7993 19.5004Z" fill="#2201A7"/>
<path d="M23.3361 19.6481C23.2573 19.9828 23.2607 20.3375 23.3248 20.6857C23.39 21.0219 23.5398 21.3538 23.7427 21.6298C23.9457 21.9057 24.1997 22.1498 24.5091 22.3137C24.8055 22.4885 25.1444 22.5941 25.4791 22.6137C26.2189 22.6718 26.9605 22.4491 27.5662 22.0056C28.1611 21.5489 28.5821 20.8924 28.7454 20.1625L29.686 15.425C29.7648 15.0903 29.7614 14.7356 29.6973 14.3873C29.6321 14.0512 29.4823 13.7192 29.2794 13.4433C29.0764 13.1674 28.8224 12.9233 28.513 12.7594C28.2166 12.5846 27.8777 12.479 27.543 12.4594C26.8021 12.4134 26.0616 12.624 25.4667 13.0807C24.8729 13.5253 24.452 14.1818 24.2756 14.9227L23.335 19.6602L23.3361 19.6481Z" fill="url(#paint2_linear_4_14978)"/>
</g>
<defs>
<linearGradient id="paint0_linear_4_14978" x1="6.62405" y1="12.6398" x2="5.6471" y2="22.9123" gradientUnits="userSpaceOnUse">
<stop stop-color="#AC9DFC"/>
<stop offset="1" stop-color="#2E1DEC"/>
</linearGradient>
<linearGradient id="paint1_linear_4_14978" x1="18.2269" y1="5.15836" x2="17.2502" y2="15.4282" gradientUnits="userSpaceOnUse">
<stop stop-color="#E261FF"/>
<stop offset="1" stop-color="#2E1DEC"/>
</linearGradient>
<linearGradient id="paint2_linear_4_14978" x1="26.9831" y1="12.4049" x2="26.0073" y2="22.6652" gradientUnits="userSpaceOnUse">
<stop stop-color="#7B61FF"/>
<stop offset="1" stop-color="#2E1DEC"/>
</linearGradient>
<clipPath id="clip0_4_14978">
<rect width="36" height="36" rx="18" fill="white"/>
</clipPath>
</defs>
</svg>