<svg width="36" height="36" viewBox="0 0 36 36" fill="none" xmlns="http://www.w3.org/2000/svg">
<g clip-path="url(#clip0_4_14971)">
<rect width="36" height="36" rx="18" fill="#FFCA61"/>
<path d="M38.4578 28.1513C36.2998 30.7424 33.7019 32.8592 33.7019 32.8592L33.5575 32.8317C33.585 33.8351 33.5988 34.8523 33.5988 35.8626C33.1795 35.9519 32.7397 36 32.293 36H10.7263L10.1146 35.9657H10.0871C8.91875 35.8488 7.83972 35.3952 6.95314 34.7011C6.9119 34.6667 6.86379 34.6324 6.82256 34.5911C4.81965 33.1866 4.57093 30.4281 4.57093 30.4281L4.56142 15.2374C4.56142 15.2374 3.17313 15.0519 3.02193 14.2478C2.85698 13.3818 3.64735 12.667 4.56142 12.1378C5.20059 11.7667 5.90848 11.4781 6.40332 11.2925C6.71259 11.1757 5.44113 11.21 4.56142 10.9557C4.21091 10.8595 3.92913 10.7152 3.82604 10.4953C3.32433 9.44372 3.90851 8.67397 4.56142 8.17226C5.04939 7.80114 5.57172 7.57434 5.73666 7.47812C11.118 4.39913 17.5784 4.99706 22.9941 7.60183C25.1934 8.66023 26.946 10.3303 28.3205 12.3097C28.5542 12.6327 28.7672 12.9626 28.9734 13.2993C29.537 14.2203 30.0318 15.1893 30.4648 16.179C30.6572 16.612 30.8359 17.0519 31.0009 17.4917C31.2895 18.2408 31.5438 19.0037 31.7706 19.7597C31.9562 20.3714 32.1143 20.9831 32.2586 21.6016C34.3479 20.5501 36.664 19.6704 38.4578 19.7391C39.4475 19.7735 40.2722 20.1034 40.822 20.8525C42.2103 22.7562 40.5334 25.6703 38.4578 28.1513Z" fill="url(#paint0_linear_4_14971)"/>
<path d="M23.0779 23.0351C21.5621 23.0127 20.5913 22.0196 20.5839 22.0046C20.4345 21.8478 20.4345 21.6089 20.5913 21.4521C20.7407 21.2953 20.9796 21.3027 21.1364 21.4595C21.2036 21.5342 22.8763 23.1994 25.2284 21.4969C25.4076 21.3699 25.6391 21.4147 25.7585 21.5939C25.878 21.7732 25.8407 22.0121 25.6615 22.139C24.6982 22.8335 23.8246 23.05 23.0629 23.0351H23.0779Z" fill="black"/>
<path fill-rule="evenodd" clip-rule="evenodd" d="M29.321 11.9591C30.0155 11.5783 30.8742 11.5186 31.6059 11.8322C33.0546 12.437 33.4802 14.147 33.1143 15.5508C32.6737 17.2234 31.3446 18.4928 29.9931 19.4785C29.8736 19.5606 29.7616 19.6502 29.6421 19.7323C29.5376 19.7995 29.321 20.031 29.1941 20.0459L28.9925 20.0683C28.3428 19.7921 27.6857 19.5382 27.0585 19.1947C25.9086 18.56 24.7363 17.664 24.1464 16.4618L22.4737 16.6484C22.4588 16.7007 22.4513 16.753 22.4364 16.8052C22.0033 18.4779 20.6667 19.7473 19.3152 20.7329C19.1957 20.8151 19.0837 20.9047 18.9642 20.9868C18.8597 21.054 18.6431 21.2855 18.5087 21.3004L18.3071 21.3228C17.6575 21.0465 17.0004 20.7927 16.3732 20.4492C14.9395 19.6651 13.4759 18.4555 13.1325 16.7679C13.1026 16.6335 13.0877 16.4991 13.0727 16.3647C13.0503 16.1332 13.0578 15.8868 13.0877 15.6553C13.2818 14.3187 14.4392 13.3256 15.731 13.348C15.9774 13.3405 16.2313 13.3853 16.4777 13.4749C16.866 13.6093 17.2244 13.8035 17.5604 14.0275C17.9412 13.7886 18.2399 13.4376 18.6357 13.2061C19.3301 12.8253 20.1888 12.773 20.9206 13.0792C21.8241 13.46 22.3244 14.2664 22.4887 15.155L23.7357 15.0206C23.7207 14.8115 23.7357 14.6025 23.7581 14.4009C23.9522 13.0643 25.1096 12.0711 26.4014 12.0935C26.6478 12.0861 26.9017 12.1309 27.1481 12.2205C27.5364 12.3549 27.8948 12.549 28.2308 12.773C28.6117 12.5341 28.9103 12.1831 29.3061 11.9517L29.321 11.9591Z" fill="url(#paint1_linear_4_14971)"/>
<path d="M18.2616 19.8095C17.836 19.6303 17.4253 19.4511 17.0519 19.2495C16.0215 18.682 14.7446 17.7411 14.4907 16.4941C14.4758 16.412 14.4609 16.3224 14.4534 16.2477C14.4385 16.1133 14.4534 15.9864 14.4609 15.8594C14.543 15.2845 15.0209 14.7991 15.5735 14.7394H15.7153C16.8503 14.6423 17.7314 15.725 17.7314 15.725C17.7314 15.725 18.7246 14.4631 19.7924 14.2913C20.0014 14.2615 20.218 14.2913 20.4047 14.3735C21.1364 14.6871 21.3156 15.6877 21.114 16.4792C20.8303 17.5395 20.0089 18.5476 18.508 19.6527C18.4334 19.7124 18.3437 19.7722 18.2691 19.8319V19.817L18.2616 19.8095Z" fill="url(#paint2_linear_4_14971)"/>
<path d="M31.7765 15.2011C31.545 16.1196 30.8879 17.0007 29.7305 17.9341C29.5588 18.0759 29.3796 18.2178 29.1929 18.3597C29.1929 18.3597 29.1929 18.3597 29.178 18.3671C29.0958 18.4194 29.0137 18.4866 28.9316 18.5464C28.5059 18.3671 28.0952 18.1879 27.7219 17.9863C26.6914 17.4188 25.4146 16.478 25.1607 15.2235C25.1458 15.1488 25.1383 15.0592 25.1308 14.9771C25.1159 14.8427 25.1159 14.7158 25.1308 14.5888C25.2055 14.0138 25.6909 13.5285 26.2434 13.4688C26.2882 13.4613 26.333 13.4688 26.3853 13.4613C26.5346 13.4464 26.684 13.4538 26.8184 13.4762C27.1768 13.536 27.4904 13.6928 27.7443 13.872C28.1401 14.1333 28.3939 14.4395 28.3939 14.4395C28.3939 14.4395 29.387 13.1775 30.4548 13.0058C30.6639 12.9759 30.8805 13.0133 31.0746 13.0879C31.8064 13.4015 31.9856 14.4021 31.7765 15.1936V15.2011Z" fill="url(#paint3_linear_4_14971)"/>
</g>
<defs>
<linearGradient id="paint0_linear_4_14971" x1="31.5162" y1="37.6015" x2="27.6148" y2="20.7558" gradientUnits="userSpaceOnUse">
<stop stop-color="#C348F5"/>
<stop offset="1" stop-color="#E36ABD"/>
</linearGradient>
<linearGradient id="paint1_linear_4_14971" x1="23.1458" y1="11.6306" x2="23.1458" y2="21.3228" gradientUnits="userSpaceOnUse">
<stop stop-color="#FFE75C"/>
<stop offset="1" stop-color="#FFF3B0"/>
</linearGradient>
<linearGradient id="paint2_linear_4_14971" x1="17.8211" y1="14.2689" x2="17.8211" y2="19.8244" gradientUnits="userSpaceOnUse">
<stop stop-color="#D84039"/>
<stop offset="1" stop-color="#A627C3"/>
</linearGradient>
<linearGradient id="paint3_linear_4_14971" x1="28.491" y1="12.9983" x2="28.491" y2="18.5538" gradientUnits="userSpaceOnUse">
<stop stop-color="#D84039"/>
<stop offset="1" stop-color="#A627C3"/>
</linearGradient>
<clipPath id="clip0_4_14971">
<rect width="36" height="36" rx="18" fill="white"/>
</clipPath>
</defs>
</svg>