<svg preserveAspectRatio="none" width="100%" height="100%" overflow="visible" style="display: block;" viewBox="0 0 16.9756 10.8293" fill="none" xmlns="http://www.w3.org/2000/svg">
<g id="Cellular">
<path d="M14.9268 0C14.4419 0 14.0488 0.393115 14.0488 0.878048V9.95122C14.0488 10.4362 14.4419 10.8293 14.9268 10.8293H16.0976C16.5825 10.8293 16.9756 10.4362 16.9756 9.95122V0.878049C16.9756 0.393116 16.5825 0 16.0976 0H14.9268Z" fill="var(--fill-0, black)" fill-opacity="0.7"/>
<path d="M9.36585 3.21951C9.36585 2.73458 9.75897 2.34146 10.2439 2.34146H11.4146C11.8996 2.34146 12.2927 2.73458 12.2927 3.21951V9.95122C12.2927 10.4362 11.8996 10.8293 11.4146 10.8293H10.2439C9.75897 10.8293 9.36585 10.4362 9.36585 9.95122V3.21951Z" fill="var(--fill-0, black)" fill-opacity="0.7"/>
<path d="M5.56098 4.68293C5.07604 4.68293 4.68293 5.07604 4.68293 5.56098V9.95122C4.68293 10.4362 5.07604 10.8293 5.56097 10.8293H6.73171C7.21664 10.8293 7.60976 10.4362 7.60976 9.95122V5.56098C7.60976 5.07604 7.21664 4.68293 6.73171 4.68293H5.56098Z" fill="var(--fill-0, black)" fill-opacity="0.7"/>
<path d="M0.878049 6.73171C0.393116 6.73171 0 7.12482 0 7.60976V9.95122C0 10.4362 0.393115 10.8293 0.878048 10.8293H2.04878C2.53371 10.8293 2.92683 10.4362 2.92683 9.95122V7.60976C2.92683 7.12482 2.53371 6.73171 2.04878 6.73171H0.878049Z" fill="var(--fill-0, black)" fill-opacity="0.7"/>
</g>
</svg>
