<svg preserveAspectRatio="none" width="100%" height="100%" overflow="visible" style="display: block;" viewBox="0 0 14.9268 10.8292" fill="none" xmlns="http://www.w3.org/2000/svg">
<path id="Wifi" fill-rule="evenodd" clip-rule="evenodd" d="M7.46382 2.24905C9.62958 2.24914 11.7125 3.09001 13.2821 4.59785C13.4003 4.71426 13.5893 4.71279 13.7057 4.59455L14.8355 3.44237C14.8944 3.38241 14.9273 3.30118 14.9268 3.21666C14.9263 3.13214 14.8925 3.0513 14.8329 2.99204C10.7132 -0.997346 4.21382 -0.997346 0.0940943 2.99204C0.0344172 3.05126 0.000557103 3.13207 6.81306e-06 3.21659C-0.000543477 3.30111 0.0322614 3.38236 0.0911621 3.44237L1.22133 4.59455C1.33767 4.71297 1.52674 4.71444 1.64486 4.59785C3.21467 3.08991 5.29785 2.24904 7.46382 2.24905ZM7.46385 5.99751C8.65379 5.99743 9.80127 6.44435 10.6833 7.25141C10.8026 7.36595 10.9905 7.36347 11.1068 7.24581L12.2354 6.09363C12.2948 6.0332 12.3278 5.95121 12.3269 5.86602C12.3261 5.78083 12.2915 5.69953 12.2308 5.64033C9.54481 3.1157 5.38516 3.1157 2.69915 5.64033C2.63847 5.69953 2.60386 5.78087 2.60306 5.86609C2.60226 5.95131 2.63535 6.03329 2.69491 6.09363L3.82313 7.24581C3.93942 7.36347 4.12735 7.36595 4.24666 7.25141C5.12812 6.44488 6.27469 5.99801 7.46385 5.99751ZM9.72449 8.5195C9.72621 8.60493 9.69297 8.6873 9.63262 8.74715L7.68047 10.7378C7.62325 10.7963 7.54523 10.8292 7.46382 10.8292C7.38242 10.8292 7.3044 10.7963 7.24717 10.7378L5.2947 8.74715C5.23439 8.68725 5.20121 8.60486 5.203 8.51943C5.20479 8.434 5.24138 8.35309 5.30415 8.29583C6.55086 7.23034 8.37678 7.23034 9.6235 8.29583C9.68622 8.35314 9.72276 8.43407 9.72449 8.5195Z" fill="var(--fill-0, black)" fill-opacity="0.7"/>
</svg>
