<svg preserveAspectRatio="none" width="100%" height="100%" overflow="visible" style="display: block;" viewBox="0 0 27.3333 13.6667" fill="none" xmlns="http://www.w3.org/2000/svg">
<g id="battery">
<path d="M0.437285 2.43634C0 3.33444 0 4.50074 0 6.83333C0 9.16593 0 10.3322 0.437285 11.2303C0.861421 12.1014 1.56525 12.8052 2.43634 13.2294C3.33444 13.6667 4.50074 13.6667 6.83333 13.6667H18.1667C20.4993 13.6667 21.6656 13.6667 22.5637 13.2294C23.4348 12.8052 24.1386 12.1014 24.5627 11.2303C25 10.3322 25 9.16593 25 6.83333C25 4.50074 25 3.33444 24.5627 2.43634C24.1386 1.56525 23.4348 0.861421 22.5637 0.437285C21.6656 0 20.4993 0 18.1667 0H6.83333C4.50074 0 3.33444 0 2.43634 0.437285C1.56525 0.861421 0.861421 1.56525 0.437285 2.43634Z" fill="var(--fill-0, black)" fill-opacity="0.3"/>
<path d="M26 4.83268C26.783 5.1592 27.3333 5.93198 27.3333 6.83329C27.3333 7.73461 26.783 8.50739 26 8.83391V4.83268Z" fill="var(--fill-0, black)" fill-opacity="0.3"/>
</g>
</svg>
